<svg width="64" height="76" viewBox="0 0 64 76" fill="none" xmlns="http://www.w3.org/2000/svg">
<path d="M62.7959 43.7208C62.9801 43.393 63.0423 43.0105 62.9716 42.6411C62.9008 42.2718 62.7016 41.9394 62.4093 41.7028C61.3617 40.7363 58.2225 41.5482 54.8978 45.7195C51.573 49.8909 47.4171 55.2646 46.8759 55.3845C46.3346 55.5043 56.2354 14.6024 49.8063 7.83306C43.3772 1.06375 35.5757 8.37043 34.2496 15.1359C32.9236 21.9013 29.7535 26.5173 25.4198 28.0907C21.086 29.6642 23.8579 34.3961 29.9971 37.6551C36.1362 40.9141 42.5421 49.4502 41.8231 52.4541C41.104 55.4579 36.9558 46.5043 38.5563 34.7711C40.1568 23.0379 45.2831 3.66941 37.9532 1.2957C30.6234 -1.078 28.3192 11.5521 25.2149 13.7596C22.1105 15.9671 13.1337 22.2647 17.0963 27.4644C21.0589 32.6642 34.9648 50.0494 35.3282 46.1796C35.6916 42.3098 15.9056 32.7685 9.48424 32.2196C3.06287 31.6706 1.35797 37.6899 1.06029 42.4412C0.762614 47.1925 1.14148 58.1757 12.4417 59.8381C23.7419 61.5004 37.2535 59.5326 37.8527 56.8303C38.4519 54.128 22.7136 37.8368 14.3476 39.6693C10.8683 40.4425 8.32445 44.3085 6.37987 48.6229C3.62343 54.7582 3.02807 62.0455 10.8335 64.6396C24.1401 69.0584 40.2419 60.7736 45.5305 57.8162C50.8192 54.8587 44.8501 62.7839 39.6929 68.4205C35.7071 72.7929 34.2496 77.0996 32.7806 74.5751C31.3115 72.0506 34.1105 68.5713 37.8063 65.4398C42.9365 61.0713 49.5163 56.3587 50.0498 54.0855C50.9699 50.1809 48.4261 51.5881 50.9661 44.8072C52.7792 39.9592 55.9145 34.5971 59.1233 34.0134C59.8965 33.8742 62.1349 33.9631 60.8436 36.1667" stroke="#E19262" stroke-opacity="0.3" stroke-width="0.6" stroke-miterlimit="10"/>
</svg>
