<svg width="154" height="185" viewBox="0 0 154 185" fill="none" xmlns="http://www.w3.org/2000/svg">
<path d="M153.152 106.186C153.605 105.379 153.759 104.437 153.584 103.528C153.41 102.618 152.92 101.8 152.2 101.217C149.621 98.8375 141.891 100.836 133.705 111.107C125.519 121.378 115.287 134.609 113.954 134.904C112.622 135.199 136.999 34.4913 121.169 17.8241C105.34 1.15695 86.1311 19.1472 82.8662 35.8049C79.6013 52.4626 71.796 63.8278 61.1256 67.7019C50.4551 71.576 57.28 83.2269 72.3956 91.2511C87.5113 99.2753 103.284 120.293 101.513 127.689C99.7428 135.085 89.5292 113.039 93.47 84.1502C97.4107 55.261 110.032 7.57253 91.9851 1.72807C73.9377 -4.11639 68.2646 26.9811 60.6211 32.4162C52.9776 37.8514 30.8752 53.3573 40.6319 66.1599C50.3885 78.9625 84.6271 121.768 85.5219 112.24C86.4166 102.712 37.7001 79.2195 21.8896 77.8679C6.07912 76.5162 1.88139 91.3368 1.14845 103.035C0.415517 114.734 1.34835 141.776 29.1714 145.869C56.9945 149.962 90.2622 145.117 91.7376 138.464C93.213 131.81 54.4625 91.6985 33.8641 96.2103C25.2973 98.1141 19.034 107.633 14.2461 118.256C7.45933 133.362 5.99345 151.304 25.2116 157.691C57.9749 168.571 97.6201 148.173 110.642 140.891C123.663 133.609 108.966 153.122 96.2685 167.001C86.4547 177.766 82.8662 188.37 79.2491 182.154C75.632 175.939 82.5235 167.372 91.6233 159.662C104.255 148.906 120.455 137.302 121.769 131.705C124.034 122.092 117.771 125.556 124.025 108.861C128.489 96.9242 136.209 83.7218 144.109 82.2845C146.013 81.9419 151.524 82.1608 148.345 87.5864" stroke="#E19262" stroke-opacity="0.3" stroke-width="0.6" stroke-miterlimit="10"/>
</svg>
