<svg width="8" height="13" viewBox="0 0 8 13" fill="none" xmlns="http://www.w3.org/2000/svg">
<path d="M3.1836 5.93209C2.63199 5.93209 2.33081 5.05195 2.33081 4.17181C2.33081 2.91101 3.85105 1.03961 4.48651 1C4.24711 1.40046 4.15554 1.88014 4.42583 2.65026C4.57366 3.07053 5.25987 3.67673 5.25987 4.70099C5.25987 5.24338 4.94324 5.93209 4.40818 5.93209" stroke="#E19262" stroke-width="0.5" stroke-linecap="round" stroke-linejoin="round"/>
<path d="M7.19836 7.34263C7.19836 7.7662 5.67591 8.11276 3.79712 8.11276C1.91833 8.11276 0.394775 7.7684 0.394775 7.34263C0.394775 6.91686 1.91833 6.57251 3.79712 6.57251C5.67591 6.57251 7.19836 6.91796 7.19836 7.34263Z" stroke="#E19262" stroke-width="0.5" stroke-linecap="round" stroke-linejoin="round"/>
<path d="M5.13972 7.29728C4.97313 7.4282 4.44027 7.51732 3.80923 7.51732C3.14068 7.51732 2.58245 7.4073 2.45337 7.26758" stroke="#E19262" stroke-width="0.5" stroke-linecap="round" stroke-linejoin="round"/>
<path d="M0.394775 7.34253V10.8631C0.394775 11.4649 1.91833 11.9523 3.79712 11.9523C5.67591 11.9523 7.19836 11.4649 7.19836 10.8631V7.34253" stroke="#E19262" stroke-width="0.5" stroke-linecap="round" stroke-linejoin="round"/>
<path d="M3.79706 7.39877V5.42285" stroke="#E19262" stroke-width="0.5" stroke-linecap="round" stroke-linejoin="round"/>
</svg>
