<svg width="14" height="14" viewBox="0 0 14 14" fill="none" xmlns="http://www.w3.org/2000/svg">
<path d="M10.9556 5.05722C11.1712 4.80563 11.1421 4.42685 10.8905 4.21119C10.6389 3.99554 10.2601 4.02468 10.0444 4.27627L10.9556 5.05722ZM3.95555 4.27627C3.7399 4.02468 3.36112 3.99554 3.10953 4.21119C2.85793 4.42685 2.82879 4.80563 3.04445 5.05722L3.95555 4.27627ZM7.13287 8.59507L7.58842 8.98554L7.13287 8.59507ZM6.86713 8.59507L6.41158 8.98554L6.86713 8.59507ZM10.0444 4.27627L6.67732 8.20459L7.58842 8.98554L10.9556 5.05722L10.0444 4.27627ZM7.32268 8.20459L3.95555 4.27627L3.04445 5.05722L6.41158 8.98554L7.32268 8.20459ZM6.67732 8.20459C6.84693 8.00671 7.15307 8.00671 7.32268 8.20459L6.41158 8.98554C6.72088 9.34639 7.27913 9.34639 7.58842 8.98554L6.67732 8.20459Z" fill="#A87353"/>
</svg>
