<svg width="90" height="63" viewBox="0 0 90 63" fill="none" xmlns="http://www.w3.org/2000/svg">
<g clip-path="url(#clip0_239_1142)">
<path d="M7.34818 3.56067C7.43012 2.9902 7.54523 2.42481 7.69291 1.8674L8.80931 2.15572C8.67462 2.66841 8.5693 3.18825 8.49387 3.71267L7.34818 3.56067Z" fill="#E19262"/>
<path d="M24.4441 29.3048L25.0133 28.2927C25.9735 28.8318 26.9659 29.3415 27.9655 29.8057L27.472 30.8614C26.4489 30.3818 25.43 29.8587 24.4441 29.3048ZM22.9777 28.441C22.0114 27.8467 21.0589 27.2086 20.1479 26.5448L20.8339 25.6002C21.7201 26.2478 22.6478 26.8695 23.5879 27.4468L22.9777 28.441ZM29.0291 31.5517L29.4792 30.4823C30.4976 30.9075 31.5466 31.2929 32.5866 31.6444L32.2195 32.7444C31.1505 32.3838 30.0759 31.9836 29.0324 31.5459L29.0291 31.5517ZM18.7918 25.5129C17.9026 24.808 17.0316 24.0618 16.2077 23.2931L16.9957 22.4418C17.798 23.1885 18.6437 23.9162 19.5097 24.6019L18.7918 25.5129ZM33.8468 33.2472L34.1727 32.133C35.2319 32.4381 36.3143 32.7029 37.3928 32.9253L37.1557 34.0602C36.052 33.8289 34.9391 33.5542 33.8468 33.2472ZM14.9834 22.1055C14.1807 21.2933 13.4207 20.4396 12.7064 19.5479L13.6078 18.8195C14.2982 19.6791 15.0317 20.5027 15.8054 21.2873L14.9834 22.1055ZM38.8355 34.3635L39.0289 33.2187C40.1212 33.3973 41.2296 33.5316 42.323 33.6228L42.2257 34.779C41.0969 34.6865 39.9522 34.5428 38.8355 34.3635ZM11.672 18.1827C11.0028 17.2498 10.3903 16.2771 9.83784 15.2697L10.8529 14.7065C11.3812 15.6719 11.9669 16.6042 12.6068 17.4985L11.672 18.1827ZM43.9215 34.8866L43.9761 33.7288C44.9928 33.7718 46.0831 33.7826 47.3113 33.762L47.3226 34.9177C46.0712 34.9422 44.9636 34.9251 43.9248 34.8809L43.9215 34.8866ZM9.0713 13.7335C8.58763 12.6853 8.18662 11.6001 7.87193 10.488L8.98078 10.1705C9.28029 11.2232 9.66151 12.2502 10.1209 13.2421L9.0713 13.7335ZM49.0137 34.879L48.9867 33.7142C49.9354 33.6874 50.9075 33.6396 51.8461 33.5973L52.3468 33.5761L52.3877 34.7297L51.8876 34.7532C50.9491 34.7955 49.9772 34.8396 49.0178 34.8718L49.0137 34.879ZM7.4795 8.79429C7.26731 7.64846 7.17601 6.48258 7.20709 5.31592L8.35239 5.33363C8.32596 6.42151 8.41384 7.5084 8.61456 8.57626L7.4795 8.79429ZM54.071 34.6616L54.0348 33.503C55.3603 33.4523 56.4366 33.4283 57.4229 33.4251L57.4184 34.585C56.4462 34.5868 55.3832 34.6109 54.071 34.6616ZM59.0859 34.6035L59.1235 33.4455C60.3468 33.4795 61.4612 33.554 62.5306 33.6735L62.3936 34.8259C61.3573 34.7083 60.2752 34.6371 59.0859 34.6035ZM82.2266 47.939C81.6797 46.9866 81.0742 46.0697 80.4136 45.1934L81.3439 44.4874C82.0313 45.4047 82.662 46.3637 83.2324 47.359L82.2266 47.939ZM64.0294 35.054L64.2257 33.9109C64.6735 33.9779 65.1124 34.0704 65.5416 34.1631C66.2179 34.3084 66.9038 34.4899 67.5727 34.6941L67.2272 35.8028C66.5895 35.607 65.9352 35.4399 65.2906 35.2957C64.8789 35.2055 64.4541 35.1249 64.0294 35.054ZM79.3887 43.9007C78.676 43.0644 77.9135 42.2724 77.1052 41.5289L77.8892 40.6714C78.7289 41.4468 79.5219 42.2718 80.2639 43.1419L79.3887 43.9007ZM75.8581 40.4564C75.0083 39.7612 74.1169 39.1186 73.1888 38.5323L73.805 37.5473C74.7751 38.1541 75.7069 38.8201 76.5954 39.5414L75.8581 40.4564ZM68.7783 36.3421L69.1914 35.2514C70.264 35.6619 71.3086 36.1421 72.3183 36.689L71.7634 37.7093C70.8002 37.1878 69.8039 36.7297 68.7808 36.3378L68.7783 36.3421Z" fill="#E19262"/>
<path d="M83.6657 50.8747C83.4652 50.376 83.2383 49.8868 82.9964 49.4005L84.0322 48.8838C84.2788 49.3881 84.5121 49.9059 84.7255 50.4217L83.6657 50.8747Z" fill="#E19262"/>
<path d="M85.4666 54.6419C84.1568 53.0066 82.2083 51.0848 80.481 50.0704L83.9829 50.1443L86.7361 47.9531C85.9589 49.8161 85.5419 52.5364 85.4666 54.6419Z" fill="#E19262"/>
</g>
<defs>
<clipPath id="clip0_239_1142">
<rect width="93.7413" height="17.5422" fill="white" transform="translate(8.77106) rotate(30)"/>
</clipPath>
</defs>
</svg>
