<svg width="24" height="24" viewBox="0 0 24 24" fill="none" xmlns="http://www.w3.org/2000/svg">
<path d="M8.57574 7.57574C8.81005 7.34142 9.18995 7.34142 9.42426 7.57574C9.65858 7.81005 9.65858 8.18995 9.42426 8.42426L8.57574 7.57574ZM5 12L4.57574 12.4243L4.15147 12L4.57574 11.5757L5 12ZM9.42426 15.5757C9.65858 15.8101 9.65858 16.1899 9.42426 16.4243C9.18995 16.6586 8.81005 16.6586 8.57574 16.4243L9.42426 15.5757ZM19 11.4C19.3314 11.4 19.6 11.6686 19.6 12C19.6 12.3314 19.3314 12.6 19 12.6V11.4ZM9.42426 8.42426L5.42426 12.4243L4.57574 11.5757L8.57574 7.57574L9.42426 8.42426ZM5.42426 11.5757L9.42426 15.5757L8.57574 16.4243L4.57574 12.4243L5.42426 11.5757ZM5 11.4H19V12.6H5V11.4Z" fill="#95694E"/>
</svg>
