<svg width="94" height="48" viewBox="0 0 94 48" fill="none" xmlns="http://www.w3.org/2000/svg">
<path d="M19.871 27.309C18.9823 27.1643 18.538 26.4617 18.538 25.201C18.538 24.7257 18.5897 24.178 18.693 23.558C18.7963 22.9587 18.9823 22.287 19.251 21.543L20.243 18.846C20.5943 17.8953 21.0077 16.8 21.483 15.56C21.9583 14.2993 22.4853 12.8837 23.064 11.313C23.1053 11.1477 23.1363 11.003 23.157 10.879C23.1983 10.7343 23.219 10.6207 23.219 10.538C23.219 10.2073 23.095 10.042 22.847 10.042C22.6197 10.042 22.3407 10.1453 22.01 10.352C20.8733 11.0547 19.7263 11.9537 18.569 13.049C17.7837 13.793 17.1017 14.444 16.523 15.002C15.965 15.56 15.5103 16.025 15.159 16.397C13.8983 17.761 12.9063 19.0113 12.183 20.148C13.1337 20.024 13.981 19.6623 14.725 19.063C15.4897 18.443 16.0167 17.6783 16.306 16.769C16.3473 16.707 16.3887 16.676 16.43 16.676C16.5127 16.676 16.554 16.7277 16.554 16.831C16.2233 17.8643 15.624 18.7323 14.756 19.435C13.9293 20.0343 12.9993 20.3857 11.966 20.489C11.8213 20.7783 11.6353 21.1297 11.408 21.543C11.2013 21.9563 10.9533 22.4317 10.664 22.969C10.5813 23.093 10.4263 23.2273 10.199 23.372C9.93033 23.558 9.72367 23.651 9.579 23.651C9.43433 23.651 9.362 23.5683 9.362 23.403C9.362 23.217 9.424 22.9897 9.548 22.721C9.63067 22.4937 9.74433 22.1837 9.889 21.791C10.0543 21.3983 10.2403 20.9437 10.447 20.427C10.261 20.3857 10.075 20.3443 9.889 20.303C9.72367 20.241 9.55833 20.1687 9.393 20.086L9.176 20.551C8.90733 21.1297 8.649 21.6773 8.401 22.194C8.17367 22.69 7.94633 23.1447 7.719 23.558C7.69833 23.6407 7.63633 23.6613 7.533 23.62C7.471 23.5993 7.46067 23.5373 7.502 23.434C7.77067 23 8.01867 22.5143 8.246 21.977C8.494 21.419 8.773 20.8197 9.083 20.179L9.176 19.993C6.944 18.9183 5.63167 16.769 5.239 13.545C5.177 12.987 5.146 12.4497 5.146 11.933C5.146 11.0237 5.239 10.1867 5.425 9.422C4.247 10.3107 3.29633 11.2407 2.573 12.212C1.78767 13.3073 1.395 14.2787 1.395 15.126C1.395 15.498 1.50867 15.8183 1.736 16.087C1.984 16.335 2.27333 16.459 2.604 16.459C2.64533 16.459 2.68667 16.459 2.728 16.459C2.76933 16.4383 2.821 16.4177 2.883 16.397C2.945 16.3763 2.99667 16.366 3.038 16.366C3.1 16.366 3.14133 16.366 3.162 16.366C3.286 16.366 3.348 16.4073 3.348 16.49C3.348 16.614 3.26533 16.707 3.1 16.769C2.93467 16.8103 2.77967 16.8517 2.635 16.893C2.49033 16.9137 2.34567 16.924 2.201 16.924C1.66367 16.924 1.24 16.7483 0.93 16.397C0.62 16.0457 0.465 15.5497 0.465 14.909C0.465 13.6277 1.01267 12.3567 2.108 11.096C3.05867 10.0213 4.29867 9.10167 5.828 8.337C6.2 7.44833 6.696 6.76633 7.316 6.291C7.936 5.81567 8.56633 5.578 9.207 5.578C10.137 5.578 10.8603 6.012 11.377 6.88C13.2783 7.128 14.229 8.47133 14.229 10.91C14.229 12.5633 13.702 15.002 12.648 18.226C15.7067 14.6093 18.3727 11.9847 20.646 10.352C21.6173 9.67 22.3717 9.24633 22.909 9.081C23.2603 8.97767 23.529 8.926 23.715 8.926C24.3143 8.926 24.614 9.267 24.614 9.949C24.614 10.5483 24.3763 11.344 23.901 12.336C23.1363 13.886 22.506 15.2397 22.01 16.397C21.514 17.5337 21.142 18.4637 20.894 19.187C20.4807 20.4063 20.1707 21.4913 19.964 22.442C19.7573 23.372 19.654 24.1573 19.654 24.798C19.654 25.9553 20.0157 26.534 20.739 26.534C20.9043 26.534 21.1007 26.4823 21.328 26.379C21.576 26.2757 21.793 26.1517 21.979 26.007C22.1857 25.883 22.289 25.7797 22.289 25.697C22.3717 25.6763 22.413 25.697 22.413 25.759C22.413 25.9863 22.3097 26.2033 22.103 26.41C21.793 26.72 21.4003 26.9577 20.925 27.123C20.5117 27.2883 20.1603 27.3503 19.871 27.309ZM6.231 8.089C7.967 7.26233 9.455 6.849 10.695 6.849H10.912C10.4367 6.12567 9.827 5.764 9.083 5.764C8.56633 5.764 8.04967 5.97067 7.533 6.384C7.01633 6.77667 6.58233 7.345 6.231 8.089ZM9.269 19.683C10.819 15.777 11.594 12.5117 11.594 9.887C11.594 9.34967 11.563 8.87433 11.501 8.461C11.439 8.027 11.3253 7.64467 11.16 7.314C11.0773 7.29333 10.9947 7.283 10.912 7.283C10.8293 7.26233 10.7467 7.252 10.664 7.252C9.32067 7.252 7.72933 7.872 5.89 9.112C5.66267 9.918 5.549 10.786 5.549 11.716C5.549 11.9847 5.55933 12.2533 5.58 12.522C5.60067 12.7907 5.63167 13.0697 5.673 13.359C6.08633 16.6037 7.285 18.7117 9.269 19.683ZM10.571 20.117L11.284 18.35C12.0073 16.5933 12.5137 15.0433 12.803 13.7C13.113 12.336 13.268 11.189 13.268 10.259C13.268 8.66767 12.7203 7.717 11.625 7.407C11.8937 8.027 12.028 8.802 12.028 9.732C12.028 12.2533 11.1807 15.6117 9.486 19.807C9.65133 19.8897 9.827 19.9517 10.013 19.993C10.199 20.0343 10.385 20.0757 10.571 20.117ZM24.079 23.031C23.6037 23.031 23.366 22.721 23.366 22.101C23.366 21.605 23.552 21.0677 23.924 20.489C24.792 19.187 25.7323 18.3087 26.745 17.854C27.179 17.6473 27.6027 17.544 28.016 17.544C28.2227 17.544 28.45 17.606 28.698 17.73C28.946 17.8333 29.07 17.9883 29.07 18.195C29.07 18.2983 28.9977 18.3603 28.853 18.381C28.7703 18.4017 28.7083 18.4223 28.667 18.443C28.6463 18.4637 28.6257 18.4843 28.605 18.505C28.1297 19.3937 27.892 20.2203 27.892 20.985C27.892 21.9563 28.2743 22.442 29.039 22.442C29.845 22.442 30.8473 21.8117 32.046 20.551C32.1493 20.427 32.232 20.365 32.294 20.365C32.356 20.365 32.387 20.4063 32.387 20.489C32.387 20.5717 32.356 20.6647 32.294 20.768C30.9093 22.256 29.7003 23 28.667 23C28.171 23 27.768 22.783 27.458 22.349C27.1273 21.8943 26.9517 21.3467 26.931 20.706C26.4143 21.388 25.8977 21.9563 25.381 22.411C24.8437 22.8243 24.4097 23.031 24.079 23.031ZM24.73 22.101C24.9573 22.101 25.257 21.946 25.629 21.636C25.9597 21.3467 26.2387 21.0677 26.466 20.799C26.6933 20.5097 26.8587 20.2203 26.962 19.931C27.0033 19.5797 27.0653 19.2697 27.148 19.001C27.2513 18.7117 27.3547 18.4533 27.458 18.226C26.3833 18.2053 25.4637 18.9493 24.699 20.458C24.4717 20.8713 24.358 21.2433 24.358 21.574C24.358 21.9253 24.482 22.101 24.73 22.101ZM33.8648 23C33.0382 22.9793 32.5318 22.5557 32.3458 21.729C32.3252 21.5843 32.3045 21.45 32.2838 21.326C32.2838 21.202 32.2838 21.078 32.2838 20.954C32.2838 20.1687 32.5008 19.2697 32.9348 18.257C32.6662 18.2777 32.4698 18.288 32.3458 18.288C32.2218 18.288 32.1805 18.2983 32.2218 18.319C31.8912 18.2777 31.7258 18.1433 31.7258 17.916V17.854C31.7258 17.7093 31.8705 17.637 32.1598 17.637L32.7178 17.606H33.2758C33.3585 17.4407 33.4825 17.203 33.6478 16.893C33.8132 16.5623 34.0302 16.1697 34.2988 15.715C34.4435 15.467 34.6088 15.188 34.7948 14.878C35.0015 14.568 35.2185 14.2373 35.4458 13.886C35.7352 13.638 36.0865 13.514 36.4998 13.514C36.8718 13.514 37.0578 13.607 37.0578 13.793C37.0578 13.8343 37.0372 13.8757 36.9958 13.917C36.7272 14.289 36.3862 14.785 35.9728 15.405C35.5595 16.025 35.0738 16.7587 34.5158 17.606H37.5538C37.7398 17.668 37.8328 17.7507 37.8328 17.854C37.8328 18.04 37.6055 18.164 37.1508 18.226C37.0682 18.2467 36.7788 18.257 36.2828 18.257C35.7868 18.257 35.0842 18.257 34.1748 18.257C33.5342 19.4557 33.2138 20.427 33.2138 21.171C33.2138 22.0183 33.5755 22.442 34.2988 22.442C34.6502 22.442 35.0325 22.3283 35.4458 22.101C35.7352 21.9357 36.0348 21.729 36.3448 21.481C36.6548 21.2123 36.9752 20.9023 37.3058 20.551C37.4092 20.427 37.5022 20.365 37.5848 20.365C37.6675 20.365 37.7088 20.4063 37.7088 20.489C37.7088 20.5923 37.6778 20.675 37.6158 20.737C36.1692 22.2663 34.9188 23.0207 33.8648 23ZM42.1387 23C41.8494 22.9587 41.591 22.814 41.3637 22.566C41.095 22.2767 40.9607 21.8737 40.9607 21.357C40.9607 21.1297 40.9917 20.892 41.0537 20.644C40.1237 21.7393 39.4004 22.4213 38.8837 22.69C38.5944 22.8347 38.3257 22.907 38.0777 22.907C37.4784 22.907 37.1787 22.566 37.1787 21.884C37.1787 21.1813 37.5404 20.1687 38.2637 18.846C38.3877 18.6187 38.6564 18.505 39.0697 18.505C39.3177 18.505 39.4107 18.598 39.3487 18.784L38.6977 19.962C38.491 20.3133 38.3464 20.6337 38.2637 20.923C38.181 21.2123 38.1397 21.4603 38.1397 21.667C38.1397 22.163 38.2534 22.411 38.4807 22.411C38.9974 22.411 39.6484 21.8943 40.4337 20.861C41.1157 19.931 41.6324 19.001 41.9837 18.071C42.1077 17.885 42.3557 17.792 42.7277 17.792C42.9344 17.792 43.0377 17.8437 43.0377 17.947C43.0377 17.9883 43.017 18.0297 42.9757 18.071C42.2317 19.559 41.8597 20.7163 41.8597 21.543C41.8597 22.1837 42.118 22.504 42.6347 22.504C43.4407 22.504 44.4637 21.8427 45.7037 20.52C45.8277 20.396 45.931 20.334 46.0137 20.334C46.0757 20.334 46.1067 20.3857 46.1067 20.489C46.1067 20.5923 46.0654 20.675 45.9827 20.737C44.474 22.349 43.1927 23.1033 42.1387 23ZM49.9672 23.496C49.0372 23.496 48.5722 22.9897 48.5722 21.977C48.5722 21.2743 48.8718 20.3753 49.4712 19.28C49.1612 19.3213 48.8615 19.218 48.5722 18.97C48.3035 18.722 48.1692 18.4327 48.1692 18.102C47.6318 19.1147 46.8258 20.0653 45.7512 20.954C45.6685 21.0367 45.5652 21.078 45.4412 21.078C45.3585 21.078 45.3172 21.047 45.3172 20.985C45.3172 20.9023 45.3792 20.8197 45.5032 20.737C46.4332 19.8897 47.2288 18.846 47.8902 17.606L47.8282 17.296C47.8075 17.1927 47.7868 17.0997 47.7662 17.017C47.7662 16.9137 47.7662 16.8207 47.7662 16.738C47.7662 16.242 47.9005 15.8493 48.1692 15.56C48.4172 15.2913 48.6962 15.157 49.0062 15.157C49.3988 15.157 49.5952 15.3637 49.5952 15.777C49.5952 16.2937 49.2542 16.955 48.5722 17.761V17.823C48.5722 18.1743 48.7788 18.35 49.1922 18.35C49.3575 18.35 49.5538 18.3087 49.7812 18.226C50.0292 18.164 50.2048 18.133 50.3082 18.133C50.6802 18.133 50.8662 18.3293 50.8662 18.722C50.8662 18.8667 50.8145 19.0217 50.7112 19.187C50.5665 19.3937 50.3805 19.7657 50.1532 20.303C49.8845 20.8817 49.7295 21.3053 49.6882 21.574C49.6675 21.6567 49.6468 21.7393 49.6262 21.822C49.6262 21.9047 49.6262 21.9873 49.6262 22.07C49.6262 22.6073 49.8742 22.876 50.3702 22.876C50.9902 22.876 51.7755 22.597 52.7262 22.039C53.1395 21.8117 53.5115 21.574 53.8422 21.326C54.1728 21.078 54.4725 20.8197 54.7412 20.551C54.8652 20.427 54.9685 20.365 55.0512 20.365C55.1132 20.365 55.1442 20.4063 55.1442 20.489C55.1442 20.5923 55.0822 20.706 54.9582 20.83C53.5115 22.07 52.2922 22.8657 51.3002 23.217C50.7835 23.403 50.3392 23.496 49.9672 23.496ZM54.9882 23.031C54.5129 23.031 54.2752 22.721 54.2752 22.101C54.2752 21.605 54.4612 21.0677 54.8332 20.489C55.7012 19.187 56.6415 18.3087 57.6542 17.854C58.0882 17.6473 58.5119 17.544 58.9252 17.544C59.1319 17.544 59.3592 17.606 59.6072 17.73C59.8552 17.8333 59.9792 17.9883 59.9792 18.195C59.9792 18.2983 59.9069 18.3603 59.7622 18.381C59.6795 18.4017 59.6175 18.4223 59.5762 18.443C59.5555 18.4637 59.5349 18.4843 59.5142 18.505C59.0389 19.3937 58.8012 20.2203 58.8012 20.985C58.8012 21.9563 59.1835 22.442 59.9482 22.442C60.7542 22.442 61.7565 21.8117 62.9552 20.551C63.0585 20.427 63.1412 20.365 63.2032 20.365C63.2652 20.365 63.2962 20.4063 63.2962 20.489C63.2962 20.5717 63.2652 20.6647 63.2032 20.768C61.8185 22.256 60.6095 23 59.5762 23C59.0802 23 58.6772 22.783 58.3672 22.349C58.0365 21.8943 57.8609 21.3467 57.8402 20.706C57.3235 21.388 56.8069 21.9563 56.2902 22.411C55.7529 22.8243 55.3189 23.031 54.9882 23.031ZM55.6392 22.101C55.8665 22.101 56.1662 21.946 56.5382 21.636C56.8689 21.3467 57.1479 21.0677 57.3752 20.799C57.6025 20.5097 57.7679 20.2203 57.8712 19.931C57.9125 19.5797 57.9745 19.2697 58.0572 19.001C58.1605 18.7117 58.2639 18.4533 58.3672 18.226C57.2925 18.2053 56.3729 18.9493 55.6082 20.458C55.3809 20.8713 55.2672 21.2433 55.2672 21.574C55.2672 21.9253 55.3912 22.101 55.6392 22.101ZM64.464 23C63.4927 22.9587 63.007 22.38 63.007 21.264C63.007 20.9747 63.038 20.6233 63.1 20.21C63.1827 19.7967 63.2963 19.3213 63.441 18.784C63.6477 18.0813 63.937 17.3063 64.309 16.459C64.681 15.591 65.146 14.6507 65.704 13.638C67.13 10.9927 68.3493 9.67 69.362 9.67C69.92 9.67 70.199 10.0007 70.199 10.662C70.199 10.9513 70.137 11.2717 70.013 11.623C69.4343 13.4623 67.7087 15.6117 64.836 18.071C64.2367 19.1663 63.937 20.2513 63.937 21.326C63.937 22.1527 64.2057 22.566 64.743 22.566C65.0943 22.566 65.5283 22.411 66.045 22.101C66.3343 21.9357 66.634 21.729 66.944 21.481C67.254 21.2123 67.5743 20.9023 67.905 20.551C68.029 20.4063 68.1323 20.334 68.215 20.334C68.2977 20.3547 68.339 20.4063 68.339 20.489C68.339 20.5717 68.2977 20.6543 68.215 20.737C66.7683 22.287 65.518 23.0413 64.464 23ZM65.084 17.451C65.4973 17.0377 65.9003 16.6037 66.293 16.149C66.7063 15.6943 67.1093 15.2087 67.502 14.692C67.9567 14.0927 68.339 13.5347 68.649 13.018C68.9797 12.5013 69.2277 12.0157 69.393 11.561C69.5377 11.189 69.61 10.879 69.61 10.631C69.61 10.3003 69.4963 10.135 69.269 10.135C68.9177 10.135 68.525 10.5173 68.091 11.282C67.5123 12.2533 66.975 13.2557 66.479 14.289C65.983 15.3223 65.518 16.3763 65.084 17.451Z" fill="#A87353"/>
<path d="M27.744 38.054C27.124 38.054 26.814 37.62 26.814 36.752C26.814 36.5867 26.8347 36.411 26.876 36.225C26.8967 36.0183 26.9277 35.8117 26.969 35.605C27.1343 34.985 27.4133 34.3547 27.806 33.714C27.9713 33.4247 28.147 33.1767 28.333 32.97C28.519 32.7427 28.705 32.5463 28.891 32.381C29.1803 32.133 29.4387 32.009 29.666 32.009C29.914 32.009 30.038 32.102 30.038 32.288C30.038 32.3293 30.0173 32.3913 29.976 32.474C29.6867 32.7633 29.387 33.1457 29.077 33.621C28.767 34.0757 28.457 34.6337 28.147 35.295C27.775 36.0597 27.589 36.6487 27.589 37.062C27.589 37.3927 27.7233 37.558 27.992 37.558C28.5293 37.558 29.1597 37.1033 29.883 36.194C30.2343 35.7187 30.5443 35.2227 30.813 34.706C31.1023 34.1687 31.371 33.6417 31.619 33.125C31.7223 33.001 31.898 32.939 32.146 32.939C32.4767 32.939 32.642 33.063 32.642 33.311C32.3113 33.9103 32.0633 34.458 31.898 34.954C31.7533 35.326 31.681 35.6567 31.681 35.946C31.681 36.318 31.805 36.504 32.053 36.504C32.301 36.504 32.6007 36.3077 32.952 35.915C33.3033 35.5017 33.5927 34.9953 33.82 34.396C33.6547 34.024 33.572 33.6417 33.572 33.249C33.572 32.133 33.8407 31.575 34.378 31.575C34.5433 31.575 34.6777 31.6577 34.781 31.823C34.8843 31.9677 34.936 32.164 34.936 32.412C34.936 33.094 34.719 33.652 34.285 34.086C34.3677 34.4167 34.5227 34.6957 34.75 34.923C34.998 35.1297 35.277 35.233 35.587 35.233C36.021 35.233 36.4447 34.9953 36.858 34.52C37.0233 34.3547 37.1267 34.3237 37.168 34.427C37.23 34.5303 37.199 34.6337 37.075 34.737C36.5583 35.2537 36.0107 35.512 35.432 35.512C34.8327 35.512 34.3573 35.2433 34.006 34.706C33.7167 35.45 33.355 36.039 32.921 36.473C32.5077 36.8863 32.115 37.093 31.743 37.093C31.1643 37.093 30.875 36.6693 30.875 35.822C30.875 35.7393 30.875 35.6567 30.875 35.574C30.875 35.4707 30.8853 35.3777 30.906 35.295C30.8853 35.3157 30.8027 35.419 30.658 35.605C30.534 35.7703 30.3583 36.0287 30.131 36.38C29.8003 36.8553 29.4077 37.248 28.953 37.558C28.4983 37.8887 28.0953 38.054 27.744 38.054ZM40.7211 29.25C40.5351 29.25 40.3595 29.1777 40.1941 29.033C40.0495 28.8677 39.9771 28.692 39.9771 28.506C39.9771 28.258 40.0908 28.0513 40.3181 27.886C40.4835 27.7413 40.6695 27.669 40.8761 27.669C41.3515 27.669 41.5891 27.8757 41.5891 28.289C41.5891 28.9297 41.2998 29.25 40.7211 29.25ZM38.6441 37C37.4455 36.9793 36.9081 36.1527 37.0321 34.52C37.0528 33.8173 37.4351 32.9183 38.1791 31.823C38.3031 31.5957 38.5718 31.482 38.9851 31.482C39.2951 31.482 39.4501 31.575 39.4501 31.761L39.4191 31.916L38.6441 33.249C38.3341 33.8277 38.1688 34.272 38.1481 34.582C38.1275 34.6853 38.1068 34.799 38.0861 34.923C38.0861 35.0263 38.0861 35.1297 38.0861 35.233C38.0861 36.0803 38.3858 36.504 38.9851 36.504C39.8118 36.504 40.8451 35.853 42.0851 34.551C42.2091 34.4063 42.3125 34.334 42.3951 34.334C42.4571 34.3547 42.4881 34.4063 42.4881 34.489C42.4881 34.551 42.4571 34.6337 42.3951 34.737C40.9485 36.287 39.6981 37.0413 38.6441 37ZM43.942 37C43.1153 36.9793 42.609 36.5557 42.423 35.729C42.4023 35.5843 42.3817 35.45 42.361 35.326C42.361 35.202 42.361 35.078 42.361 34.954C42.361 34.1687 42.578 33.2697 43.012 32.257C42.7433 32.2777 42.547 32.288 42.423 32.288C42.299 32.288 42.2577 32.2983 42.299 32.319C41.9683 32.2777 41.803 32.1433 41.803 31.916V31.854C41.803 31.7093 41.9477 31.637 42.237 31.637L42.795 31.606H43.353C43.4357 31.4407 43.5597 31.203 43.725 30.893C43.8903 30.5623 44.1073 30.1697 44.376 29.715C44.5207 29.467 44.686 29.188 44.872 28.878C45.0787 28.568 45.2957 28.2373 45.523 27.886C45.8123 27.638 46.1637 27.514 46.577 27.514C46.949 27.514 47.135 27.607 47.135 27.793C47.135 27.8343 47.1143 27.8757 47.073 27.917C46.8043 28.289 46.4633 28.785 46.05 29.405C45.6367 30.025 45.151 30.7587 44.593 31.606H47.631C47.817 31.668 47.91 31.7507 47.91 31.854C47.91 32.04 47.6827 32.164 47.228 32.226C47.1453 32.2467 46.856 32.257 46.36 32.257C45.864 32.257 45.1613 32.257 44.252 32.257C43.6113 33.4557 43.291 34.427 43.291 35.171C43.291 36.0183 43.6527 36.442 44.376 36.442C44.7273 36.442 45.1097 36.3283 45.523 36.101C45.8123 35.9357 46.112 35.729 46.422 35.481C46.732 35.2123 47.0523 34.9023 47.383 34.551C47.4863 34.427 47.5793 34.365 47.662 34.365C47.7447 34.365 47.786 34.4063 47.786 34.489C47.786 34.5923 47.755 34.675 47.693 34.737C46.2463 36.2663 44.996 37.0207 43.942 37ZM47.5348 36.969C47.2455 36.969 47.1008 36.7313 47.1008 36.256C47.1008 36.0493 47.1318 35.8427 47.1938 35.636C47.3592 35.0573 47.6072 34.365 47.9378 33.559C48.2685 32.753 48.6612 31.823 49.1158 30.769C49.6945 29.4463 50.2215 28.32 50.6968 27.39C51.1928 26.4393 51.6372 25.6747 52.0298 25.096C52.6705 24.1453 53.3732 23.67 54.1378 23.67C54.6958 23.67 54.9748 24.0007 54.9748 24.662C54.9748 24.9513 54.9128 25.2717 54.7888 25.623C54.2102 27.4623 52.4845 29.6117 49.6118 32.071C49.3225 32.6083 49.0538 33.187 48.8058 33.807C48.5578 34.427 48.3512 35.0883 48.1858 35.791L48.5578 35.419C48.7232 35.2537 48.9092 35.0573 49.1158 34.83C49.3432 34.6027 49.6222 34.334 49.9528 34.024C50.7795 33.3213 51.4408 32.97 51.9368 32.97C52.2675 32.97 52.4638 33.2387 52.5258 33.776L52.6808 35.295C52.7842 35.8323 52.9908 36.101 53.3008 36.101C53.6728 36.101 54.1275 35.9047 54.6648 35.512C54.8715 35.3467 55.0678 35.1917 55.2538 35.047C55.4398 34.8817 55.6052 34.7163 55.7498 34.551C55.8532 34.427 55.9565 34.365 56.0598 34.365C56.1218 34.365 56.1528 34.4063 56.1528 34.489C56.1528 34.551 56.1218 34.6337 56.0598 34.737C54.6752 36.163 53.5488 36.876 52.6808 36.876C52.2882 36.876 52.0092 36.5763 51.8438 35.977L51.4718 34.582C51.3272 34.2513 51.1308 34.086 50.8828 34.086C50.6762 34.086 50.4075 34.1997 50.0768 34.427C49.6842 34.737 49.2502 35.202 48.7748 35.822C48.6715 35.9667 48.5578 36.1217 48.4338 36.287C48.3305 36.4317 48.2272 36.5763 48.1238 36.721C47.8965 36.8863 47.7002 36.969 47.5348 36.969ZM49.8598 31.451C50.2732 31.0377 50.6762 30.6037 51.0688 30.149C51.4822 29.6943 51.8852 29.2087 52.2778 28.692C53.1872 27.452 53.8072 26.4083 54.1378 25.561C54.3032 25.127 54.3858 24.817 54.3858 24.631C54.3858 24.3003 54.2722 24.135 54.0448 24.135C53.6935 24.135 53.2905 24.5173 52.8358 25.282C52.2778 26.2533 51.7508 27.2557 51.2548 28.289C50.7588 29.3223 50.2938 30.3763 49.8598 31.451ZM67.4269 37C66.4556 36.9587 65.9699 36.38 65.9699 35.264C65.9699 34.9747 66.0009 34.6233 66.0629 34.21C66.1456 33.7967 66.2592 33.3213 66.4039 32.784C66.6106 32.0813 66.8999 31.3063 67.2719 30.459C67.6439 29.591 68.1089 28.6507 68.6669 27.638C70.0929 24.9927 71.3122 23.67 72.3249 23.67C72.8829 23.67 73.1619 24.0007 73.1619 24.662C73.1619 24.9513 73.0999 25.2717 72.9759 25.623C72.3972 27.4623 70.6716 29.6117 67.7989 32.071C67.1996 33.1663 66.8999 34.2513 66.8999 35.326C66.8999 36.1527 67.1686 36.566 67.7059 36.566C68.0572 36.566 68.4912 36.411 69.0079 36.101C69.2972 35.9357 69.5969 35.729 69.9069 35.481C70.2169 35.2123 70.5372 34.9023 70.8679 34.551C70.9919 34.4063 71.0952 34.334 71.1779 34.334C71.2606 34.3547 71.3019 34.4063 71.3019 34.489C71.3019 34.5717 71.2606 34.6543 71.1779 34.737C69.7312 36.287 68.4809 37.0413 67.4269 37ZM68.0469 31.451C68.4602 31.0377 68.8632 30.6037 69.2559 30.149C69.6692 29.6943 70.0722 29.2087 70.4649 28.692C70.9196 28.0927 71.3019 27.5347 71.6119 27.018C71.9426 26.5013 72.1906 26.0157 72.3559 25.561C72.5006 25.189 72.5729 24.879 72.5729 24.631C72.5729 24.3003 72.4592 24.135 72.2319 24.135C71.8806 24.135 71.4879 24.5173 71.0539 25.282C70.4752 26.2533 69.9379 27.2557 69.4419 28.289C68.9459 29.3223 68.4809 30.3763 68.0469 31.451ZM71.988 37.558C71.1407 37.558 70.717 37.062 70.717 36.07C70.717 35.326 70.903 34.458 71.275 33.466C71.2544 33.3627 71.2337 33.2593 71.213 33.156C71.213 33.032 71.213 32.908 71.213 32.784C71.213 31.6887 71.74 31.0997 72.794 31.017C73.0627 30.6863 73.3107 30.521 73.538 30.521C73.91 30.521 74.096 30.6243 74.096 30.831C74.096 30.893 74.065 30.955 74.003 31.017L73.91 31.11C74.3854 31.2547 74.778 31.5233 75.088 31.916C75.398 32.3087 75.553 32.7323 75.553 33.187C75.553 33.993 75.336 34.7887 74.902 35.574L74.84 35.636C76.0594 35.5947 77.041 35.1917 77.785 34.427C77.847 34.365 77.9194 34.334 78.002 34.334C78.064 34.334 78.095 34.3857 78.095 34.489C78.095 34.5923 78.033 34.6957 77.909 34.799C76.9377 35.6463 75.8217 36.07 74.561 36.07C74.2097 36.504 73.7964 36.8553 73.321 37.124C72.8457 37.4133 72.4014 37.558 71.988 37.558ZM74.22 35.605C74.6747 34.7577 74.902 33.9413 74.902 33.156C74.902 32.6807 74.7884 32.2777 74.561 31.947C74.3337 31.6163 74.0237 31.4303 73.631 31.389C73.011 32.071 72.515 32.8667 72.143 33.776C72.391 34.8507 73.0834 35.4603 74.22 35.605ZM72.422 37C73.0007 37 73.5174 36.6797 73.972 36.039C73.0214 35.915 72.298 35.5223 71.802 34.861C71.7607 35.0677 71.7194 35.264 71.678 35.45C71.6574 35.636 71.647 35.8013 71.647 35.946C71.647 36.6487 71.9054 37 72.422 37ZM79.1405 37.124C78.5412 37 78.2415 36.5247 78.2415 35.698C78.2415 35.1607 78.3759 34.6337 78.6445 34.117L78.4585 34.303L77.7145 34.985C77.6525 35.0677 77.5905 35.109 77.5285 35.109C77.4252 35.109 77.3735 35.0573 77.3735 34.954C77.4149 34.8507 77.4872 34.7473 77.5905 34.644C77.9832 34.2927 78.3552 33.931 78.7065 33.559C79.0579 33.1663 79.3885 32.7633 79.6985 32.35C79.8639 32.164 80.0499 32.071 80.2565 32.071C80.5045 32.071 80.6285 32.1743 80.6285 32.381C80.6285 32.4843 80.4425 32.846 80.0705 33.466C79.8639 33.8173 79.6985 34.0963 79.5745 34.303C79.4505 34.5097 79.3782 34.6337 79.3575 34.675C79.1302 35.171 79.0165 35.605 79.0165 35.977C79.0165 36.3077 79.0992 36.4937 79.2645 36.535L79.4815 36.566C79.8949 36.566 80.3599 36.287 80.8765 35.729C81.3932 35.1503 81.8375 34.458 82.2095 33.652C82.1475 32.722 82.2509 31.9883 82.5195 31.451C82.7675 30.9963 83.0465 30.769 83.3565 30.769C83.7079 30.769 83.8835 30.9963 83.8835 31.451C83.8835 31.513 83.8629 31.6267 83.8215 31.792C83.6769 32.4327 83.3049 33.001 82.7055 33.497C82.7262 33.9517 82.9122 34.3753 83.2635 34.768C83.6149 35.14 84.0385 35.326 84.5345 35.326C85.0925 35.326 85.6299 35.047 86.1465 34.489C86.3119 34.3237 86.4049 34.2927 86.4255 34.396C86.4462 34.4167 86.4565 34.458 86.4565 34.52C86.4565 34.5613 86.4255 34.6337 86.3635 34.737C85.8262 35.3363 85.2062 35.636 84.5035 35.636C84.0075 35.636 83.5632 35.4913 83.1705 35.202C82.7779 34.892 82.5092 34.52 82.3645 34.086C81.9512 35.016 81.4242 35.7807 80.7835 36.38C80.1635 36.9587 79.6159 37.2067 79.1405 37.124ZM87.775 37.279C86.5763 37.279 85.977 36.6177 85.977 35.295C85.977 34.8403 86.1423 34.272 86.473 33.59C86.8037 32.8873 87.2067 32.3087 87.682 31.854C88.2607 31.3167 88.7877 31.048 89.263 31.048C89.9037 31.048 90.224 31.3683 90.224 32.009C90.224 32.4223 90.0587 32.8357 89.728 33.249C89.108 33.993 88.24 34.4993 87.124 34.768C87.1033 34.9127 87.0827 35.047 87.062 35.171C87.062 35.2743 87.062 35.3777 87.062 35.481C87.062 36.349 87.465 36.783 88.271 36.783C88.9117 36.783 89.7177 36.5143 90.689 35.977C91.1023 35.7497 91.4743 35.512 91.805 35.264C92.1357 35.016 92.4147 34.7783 92.642 34.551C92.89 34.2617 93.014 34.241 93.014 34.489C93.014 34.5923 92.9727 34.6853 92.89 34.768C92.6627 35.0367 92.363 35.3157 91.991 35.605C91.6397 35.8737 91.2057 36.1423 90.689 36.411C89.5937 36.9897 88.6223 37.279 87.775 37.279ZM87.248 34.427C88.2607 34.0963 88.953 33.6003 89.325 32.939C89.573 32.5257 89.697 32.1743 89.697 31.885C89.697 31.6577 89.6247 31.544 89.48 31.544C89.3147 31.544 89.0873 31.699 88.798 32.009C88.5087 32.2983 88.2193 32.66 87.93 33.094C87.6613 33.528 87.434 33.9723 87.248 34.427Z" fill="#A87353"/>
</svg>
