<svg width="16" height="10" viewBox="0 0 16 10" fill="none" xmlns="http://www.w3.org/2000/svg">
<path d="M11.4243 9.42426C11.1899 9.65858 10.8101 9.65858 10.5757 9.42426C10.3414 9.18995 10.3414 8.81005 10.5757 8.57574L11.4243 9.42426ZM15 5L15.4243 4.57574L15.8485 5L15.4243 5.42426L15 5ZM10.5757 1.42426C10.3414 1.18995 10.3414 0.81005 10.5757 0.575736C10.8101 0.341421 11.1899 0.341421 11.4243 0.575736L10.5757 1.42426ZM1 5.6C0.668629 5.6 0.4 5.33137 0.4 5C0.4 4.66863 0.668629 4.4 1 4.4L1 5.6ZM10.5757 8.57574L14.5757 4.57574L15.4243 5.42426L11.4243 9.42426L10.5757 8.57574ZM14.5757 5.42426L10.5757 1.42426L11.4243 0.575736L15.4243 4.57574L14.5757 5.42426ZM15 5.6L1 5.6L1 4.4L15 4.4L15 5.6Z" fill="#95694E"/>
</svg>
