<svg width="90" height="63" viewBox="0 0 90 63" fill="none" xmlns="http://www.w3.org/2000/svg">
<g clip-path="url(#clip0_239_1128)">
<path d="M82.6052 3.56067C82.5232 2.9902 82.4081 2.42481 82.2605 1.8674L81.1441 2.15572C81.2788 2.66841 81.3841 3.18825 81.4595 3.71267L82.6052 3.56067Z" fill="#E19262"/>
<path d="M65.5092 29.3048L64.9401 28.2927C63.9799 28.8318 62.9875 29.3415 61.9878 29.8057L62.4814 30.8614C63.5045 30.3818 64.5233 29.8587 65.5092 29.3048ZM66.9756 28.441C67.942 27.8467 68.8945 27.2086 69.8055 26.5448L69.1194 25.6002C68.2333 26.2478 67.3056 26.8695 66.3655 27.4468L66.9756 28.441ZM60.9243 31.5517L60.4741 30.4823C59.4558 30.9075 58.4068 31.2929 57.3668 31.6444L57.7339 32.7444C58.8029 32.3838 59.8775 31.9836 60.921 31.5459L60.9243 31.5517ZM71.1615 25.5129C72.0507 24.808 72.9218 24.0618 73.7457 23.2931L72.9577 22.4418C72.1553 23.1885 71.3097 23.9162 70.4437 24.6019L71.1615 25.5129ZM56.1066 33.2472L55.7807 32.133C54.7214 32.4381 53.639 32.7029 52.5606 32.9253L52.7977 34.0602C53.9014 33.8289 55.0142 33.5542 56.1066 33.2472ZM74.97 22.1055C75.7727 21.2933 76.5327 20.4396 77.2469 19.5479L76.3456 18.8195C75.6552 19.6791 74.9217 20.5027 74.1479 21.2873L74.97 22.1055ZM51.1179 34.3635L50.9245 33.2187C49.8321 33.3973 48.7238 33.5316 47.6304 33.6228L47.7277 34.779C48.8565 34.6865 50.0012 34.5428 51.1179 34.3635ZM78.2813 18.1827C78.9506 17.2498 79.5631 16.2771 80.1155 15.2697L79.1005 14.7065C78.5721 15.6719 77.9864 16.6042 77.3466 17.4985L78.2813 18.1827ZM46.0319 34.8866L45.9772 33.7288C44.9606 33.7718 43.8703 33.7826 42.642 33.762L42.6308 34.9177C43.8821 34.9422 44.9898 34.9251 46.0286 34.8809L46.0319 34.8866ZM80.8821 13.7335C81.3657 12.6853 81.7667 11.6001 82.0814 10.488L80.9726 10.1705C80.6731 11.2232 80.2919 12.2502 79.8324 13.2421L80.8821 13.7335ZM40.9397 34.879L40.9667 33.7142C40.018 33.6874 39.0458 33.6396 38.1073 33.5973L37.6066 33.5761L37.5656 34.7297L38.0657 34.7532C39.0043 34.7955 39.9762 34.8396 40.9356 34.8718L40.9397 34.879ZM82.4739 8.79429C82.6861 7.64846 82.7774 6.48258 82.7463 5.31592L81.601 5.33363C81.6274 6.42151 81.5395 7.5084 81.3388 8.57626L82.4739 8.79429ZM35.8823 34.6616L35.9185 33.503C34.5931 33.4523 33.5168 33.4283 32.5305 33.4251L32.535 34.585C33.5072 34.5868 34.5702 34.6109 35.8823 34.6616ZM30.8675 34.6035L30.8299 33.4455C29.6066 33.4795 28.4922 33.554 27.4227 33.6735L27.5597 34.8259C28.5961 34.7083 29.6782 34.6371 30.8675 34.6035ZM7.72673 47.939C8.27366 46.9866 8.87916 46.0697 9.53973 45.1934L8.6095 44.4874C7.92204 45.4047 7.29136 46.3637 6.72098 47.359L7.72673 47.939ZM25.9239 35.054L25.7277 33.9109C25.2799 33.9779 24.841 34.0704 24.4118 34.1631C23.7355 34.3084 23.0496 34.4899 22.3807 34.6941L22.7262 35.8028C23.3639 35.607 24.0181 35.4399 24.6628 35.2957C25.0744 35.2055 25.4992 35.1249 25.9239 35.054ZM10.5647 43.9007C11.2773 43.0644 12.0399 42.2724 12.8481 41.5289L12.0642 40.6714C11.2245 41.4468 10.4315 42.2718 9.68945 43.1419L10.5647 43.9007ZM14.0953 40.4564C14.9451 39.7612 15.8365 39.1186 16.7646 38.5323L16.1484 37.5473C15.1783 38.1541 14.2464 38.8201 13.358 39.5414L14.0953 40.4564ZM21.1751 36.3421L20.762 35.2514C19.6893 35.6619 18.6448 36.1421 17.6351 36.689L18.19 37.7093C19.1532 37.1878 20.1495 36.7297 21.1726 36.3378L21.1751 36.3421Z" fill="#E19262"/>
<path d="M6.2877 50.8747C6.48815 50.376 6.71508 49.8868 6.95695 49.4005L5.92122 48.8838C5.67457 49.3881 5.44133 49.9059 5.22791 50.4217L6.2877 50.8747Z" fill="#E19262"/>
<path d="M4.48672 54.6419C5.79658 53.0066 7.74504 51.0848 9.47229 50.0704L5.97047 50.1443L3.21726 47.9531C3.99449 49.8161 4.41144 52.5364 4.48672 54.6419Z" fill="#E19262"/>
</g>
<defs>
<clipPath id="clip0_239_1128">
<rect width="93.7413" height="17.5422" fill="white" transform="matrix(-0.866025 0.5 0.5 0.866025 81.1823 0)"/>
</clipPath>
</defs>
</svg>
